<?xml version="1.0" encoding="utf-8"?><svg xmlns="http://www.w3.org/2000/svg" xmlns:xlink="http://www.w3.org/1999/xlink"><symbol viewBox="0 0 256 512" id="angle-down" xmlns="http://www.w3.org/2000/svg">
    <path d="M119.5 326.9L3.5 209.1c-4.7-4.7-4.7-12.3 0-17l7.1-7.1c4.7-4.7 12.3-4.7 17 0L128 287.3l100.4-102.2c4.7-4.7 12.3-4.7 17 0l7.1 7.1c4.7 4.7 4.7 12.3 0 17L136.5 327c-4.7 4.6-12.3 4.6-17-.1z"/>
</symbol><symbol viewBox="0 0 192 512" id="angle-left" xmlns="http://www.w3.org/2000/svg">
    <path d="M25.1 247.5l117.8-116c4.7-4.7 12.3-4.7 17 0l7.1 7.1c4.7 4.7 4.7 12.3 0 17L64.7 256l102.2 100.4c4.7 4.7 4.7 12.3 0 17l-7.1 7.1c-4.7 4.7-12.3 4.7-17 0L25 264.5c-4.6-4.7-4.6-12.3.1-17z"/>
</symbol><symbol viewBox="0 0 192 512" id="angle-right" xmlns="http://www.w3.org/2000/svg">
    <path d="M166.9 264.5l-117.8 116c-4.7 4.7-12.3 4.7-17 0l-7.1-7.1c-4.7-4.7-4.7-12.3 0-17L127.3 256 25.1 155.6c-4.7-4.7-4.7-12.3 0-17l7.1-7.1c4.7-4.7 12.3-4.7 17 0l117.8 116c4.6 4.7 4.6 12.3-.1 17z"/>
</symbol><symbol viewBox="0 0 256 512" id="angle-up" xmlns="http://www.w3.org/2000/svg">
    <path d="M136.5 185.1l116 117.8c4.7 4.7 4.7 12.3 0 17l-7.1 7.1c-4.7 4.7-12.3 4.7-17 0L128 224.7 27.6 326.9c-4.7 4.7-12.3 4.7-17 0l-7.1-7.1c-4.7-4.7-4.7-12.3 0-17l116-117.8c4.7-4.6 12.3-4.6 17 .1z"/>
</symbol><symbol viewBox="0 0 384 512" id="arrow-down" xmlns="http://www.w3.org/2000/svg">
    <path d="M377.4 296.6l-168 176c-4.6 4.7-10.8 7.4-17.4 7.4s-12.84-2.688-17.38-7.438l-168-176C-2.5 286.1-2.156 271.8 7.438 262.6c9.5-9.156 24.75-8.812 33.94.813L168 396.1V56.02c0-13.25 10.75-24.01 23.1-24.01S216 42.77 216 56.02v340.1l126.6-132.7c9.156-9.625 24.41-9.969 33.94-.813 9.66 9.193 9.96 23.493.86 33.993z"/>
</symbol><symbol viewBox="0 0 448 512" id="arrow-left" xmlns="http://www.w3.org/2000/svg">
    <path d="M447.1 256c0 13.25-10.76 24.01-24.01 24.01H83.9l132.7 126.6c9.625 9.156 9.969 24.41.812 33.94-9.156 9.594-24.34 9.938-33.94.813l-176-168C2.695 268.9.008 262.6.008 256s2.687-12.8 7.437-17.4l176-168c9.555-9.09 24.755-8.75 33.955.85 9.156 9.5 8.812 24.75-.813 33.94l-132.7 126.6h340.1C437.2 232 447.1 242.8 447.1 256z"/>
</symbol><symbol viewBox="0 0 448 512" id="arrow-right" xmlns="http://www.w3.org/2000/svg">
    <path d="M264.6 70.63l176 168c4.75 4.531 7.438 10.81 7.438 17.38s-2.688 12.84-7.438 17.38l-176 168c-9.594 9.125-24.78 8.781-33.94-.813-9.156-9.5-8.812-24.75.813-33.94l132.7-126.6H24.01c-13.25 0-24.01-10.76-24.01-24.01s10.76-23.99 24.01-23.99h340.1l-132.7-126.6c-9.61-9.207-9.91-24.457-.81-33.987 9.2-9.6 23.5-9.94 34-.82z"/>
</symbol><symbol viewBox="0 0 384 512" id="arrow-up" xmlns="http://www.w3.org/2000/svg">
    <path d="M6.625 215.5l168-176C179.2 34.7 185.4 32.02 192 32.02s12.84 2.688 17.38 7.438l168 176c9.125 9.594 8.781 24.78-.813 33.94-9.5 9.156-24.75 8.812-33.94-.813L216 115.9V456c0 13.25-10.75 23.1-23.1 23.1S168 469.3 168 456V115.9L41.4 248.6c-9.18 9.6-24.43 9.9-33.962.8-9.594-9.2-9.938-24.4-.813-33.9z"/>
</symbol><symbol viewBox="0 0 512 512" id="circle-info" xmlns="http://www.w3.org/2000/svg">
    <path d="M256 0C114.6 0 0 114.6 0 256s114.6 256 256 256 256-114.6 256-256S397.4 0 256 0zm0 464c-114.7 0-208-93.31-208-208S141.3 48 256 48s208 93.31 208 208-93.3 208-208 208zm40-128h-16v-88c0-13.2-10.7-24-24-24h-32c-13.2 0-24 10.8-24 24s10.8 24 24 24h8v64h-16c-13.2 0-24 10.8-24 24s10.8 24 24 24h80c13.25 0 24-10.75 24-24s-10.7-24-24-24zm-40-144c17.67 0 32-14.33 32-32s-14.33-32-32-32-32 14.3-32 32 14.3 32 32 32z"/>
</symbol><symbol viewBox="0 0 512 512" id="magnifying-glass" xmlns="http://www.w3.org/2000/svg">
    <path d="M504.1 471l-134-134c29-35.5 45-80.2 45-129 0-114.9-93.13-208-208-208S0 93.13 0 208s93.12 208 207.1 208c48.79 0 93.55-16.91 129-45.04l134 134c5.6 4.74 11.8 7.04 17.9 7.04s12.28-2.344 16.97-7.031c9.33-9.369 9.33-24.569-.87-33.969zM48 208c0-88.22 71.78-160 160-160s160 71.78 160 160-71.78 160-160 160S48 296.2 48 208z"/>
</symbol><symbol viewBox="0 0 320 512" id="xmark" xmlns="http://www.w3.org/2000/svg">
    <path d="M312.1 375c9.369 9.369 9.369 24.57 0 33.94s-24.57 9.369-33.94 0L160 289.9l-119 119c-9.369 9.369-24.57 9.369-33.94 0s-9.369-24.57 0-33.94L126.1 256 7.027 136.1c-9.369-9.369-9.369-24.57 0-33.94s24.57-9.369 33.94 0L160 222.1l119-119c9.369-9.369 24.57-9.369 33.94 0s9.369 24.57 0 33.94L193.9 256l118.2 119z"/>
</symbol></svg>